<?xml version="1.0" standalone="no"?><!DOCTYPE svg PUBLIC "-//W3C//DTD SVG 1.1//EN" "http://www.w3.org/Graphics/SVG/1.1/DTD/svg11.dtd"><svg height="126" node-id="1" sillyvg="true" template-height="126" template-width="126" version="1.1" viewBox="0 0 126 126" width="126" xmlns="http://www.w3.org/2000/svg" xmlns:xlink="http://www.w3.org/1999/xlink"><defs node-id="388"></defs><g node-id="1381"><g node-id="1382"><path d="M 105.78 85.90 C 104.29 85.68 90.17 90.31 88.67 96.64 C 87.17 102.98 75.87 109.57 71.06 107.94 C 66.24 106.32 59.93 108.06 59.93 108.06 L 55.96 109.98 L 55.05 110.41 L 55.04 110.41 L 1.00 79.21 L 68.44 40.01 L 120.77 70.22 C 122.42 71.18 123.79 72.59 124.51 74.35 C 128.48 84.07 107.15 86.09 105.78 85.90 Z" fill="#f3f6fd" fill-rule="nonzero" group-id="1,2" node-id="398" stroke="none" target-height="70.4026" target-width="127.4819" target-x="1" target-y="40.0096"></path><path d="M 105.78 85.90 C 104.29 85.68 90.17 90.31 88.67 96.64 C 87.17 102.98 75.87 109.57 71.06 107.94 C 66.24 106.32 59.93 108.06 59.93 108.06 L 55.96 109.98 L 55.05 110.41 L 55.04 110.41 L 1.00 79.21 L 68.44 40.01 L 120.77 70.22 C 122.42 71.18 123.79 72.59 124.51 74.35 C 128.48 84.07 107.15 86.09 105.78 85.90 Z" fill="#f3f6fd" fill-rule="nonzero" group-id="1,2" node-id="400" stroke="none" target-height="70.4026" target-width="127.4819" target-x="1" target-y="40.0096"></path><g node-id="1386"><path d="M 21.31 86.47 C 21.70 86.45 22.10 86.34 22.49 86.16 C 22.31 86.88 22.38 87.66 22.61 88.04 C 22.99 88.69 24.16 88.73 25.22 88.14 C 26.28 87.54 26.82 86.53 26.43 85.88 C 26.15 85.39 25.11 84.75 24.17 84.72 C 24.28 84.53 24.39 84.28 24.49 84.00 C 24.57 83.98 24.66 83.96 24.74 83.93 C 25.70 83.61 26.26 83.18 26.34 82.76 C 26.35 82.73 26.35 82.70 26.35 82.68 L 26.36 82.64 L 27.04 79.53 C 27.08 79.33 26.87 79.14 26.42 79.00 C 25.54 78.72 23.97 78.72 22.82 79.00 C 22.22 79.14 21.81 79.34 21.66 79.54 L 19.31 82.68 C 19.29 82.71 19.27 82.73 19.25 82.76 C 19.10 82.95 19.04 83.14 19.09 83.33 C 18.86 83.34 18.65 83.37 18.46 83.40 C 17.18 83.63 15.81 84.42 15.40 85.18 C 15.00 85.94 15.71 86.38 16.99 86.16 C 17.60 86.05 18.63 85.74 19.58 85.36 C 19.59 85.50 19.61 85.62 19.66 85.74 C 18.59 86.07 17.28 86.95 16.65 87.65 C 16.53 87.79 16.44 87.93 16.35 88.07 L 19.20 89.72 C 19.63 89.50 20.02 89.21 20.33 88.85 C 20.89 88.21 21.34 87.20 21.31 86.47 Z" fill="#e1e9f4" fill-rule="nonzero" group-id="1,2,6" node-id="404" stroke="none" target-height="10.997597" target-width="12.080001" target-x="15.0048" target-y="78.7217"></path><path d="M 108.16 82.52 C 108.55 82.50 108.95 82.39 109.34 82.21 C 109.16 82.93 109.23 83.71 109.46 84.09 C 109.84 84.74 111.01 84.78 112.07 84.19 C 113.13 83.59 113.67 82.58 113.28 81.93 C 113.00 81.44 111.96 80.80 111.02 80.77 C 111.13 80.58 111.24 80.33 111.34 80.05 C 111.42 80.03 111.51 80.01 111.59 79.98 C 112.55 79.66 113.11 79.23 113.19 78.81 C 113.20 78.78 113.20 78.75 113.20 78.73 L 113.21 78.69 L 113.89 75.58 C 113.93 75.38 113.72 75.19 113.27 75.05 C 112.39 74.77 110.82 74.77 109.67 75.05 C 109.07 75.19 108.66 75.39 108.51 75.59 L 106.16 78.73 C 106.14 78.76 106.12 78.78 106.10 78.81 C 105.95 79.00 105.89 79.19 105.94 79.38 C 105.71 79.39 105.50 79.42 105.31 79.45 C 104.03 79.68 102.66 80.47 102.25 81.23 C 101.85 81.99 102.56 82.43 103.84 82.21 C 104.45 82.10 105.48 81.79 106.43 81.41 C 106.44 81.55 106.46 81.67 106.51 81.79 C 105.44 82.12 104.13 83.00 103.50 83.70 C 102.63 84.70 102.74 85.77 103.75 86.10 C 103.86 86.14 103.99 86.16 104.11 86.18 C 104.92 85.97 105.50 85.87 105.76 85.90 C 106.29 85.67 106.79 85.33 107.18 84.90 C 107.74 84.26 108.19 83.25 108.16 82.52 Z" fill="#e1e9f4" fill-rule="nonzero" group-id="1,2,6" node-id="406" stroke="none" target-height="11.409195" target-width="12.080002" target-x="101.8464" target-y="74.7666"></path></g><g node-id="1387"><path d="M 88.56 62.17 L 82.61 60.89 L 59.70 68.03 L 38.66 70.91 L 34.39 98.49 L 55.04 110.41 L 55.05 110.41 L 55.96 109.98 L 59.93 108.06 C 59.93 108.06 66.24 106.32 71.06 107.94 C 75.87 109.57 87.17 102.98 88.67 96.64 C 88.82 96.02 89.09 95.42 89.45 94.83 L 89.36 77.96 L 88.56 62.17 Z" fill="#e1e9f4" fill-rule="nonzero" group-id="1,2,7" node-id="411" stroke="none" target-height="49.5235" target-width="55.0625" target-x="34.3881" target-y="60.8888"></path></g><path d="M 120.41 70.02 L 82.02 92.03 L 72.84 86.72 L 111.22 64.71 L 110.67 64.39 L 72.29 86.40 L 43.64 69.86 L 82.02 47.85 L 81.47 47.54 L 43.09 69.55 L 33.91 64.25 L 72.29 42.24 L 71.74 41.92 L 4.04 80.96 L 4.59 81.28 L 33.47 64.50 L 42.65 69.80 L 13.77 86.58 L 14.32 86.90 L 43.20 70.12 L 52.47 75.47 L 23.59 92.25 L 23.98 92.48 L 52.86 75.69 L 62.21 81.09 L 33.32 97.87 L 33.71 98.10 L 62.59 81.31 L 71.85 86.66 L 42.97 103.44 L 43.52 103.76 L 72.40 86.98 L 81.59 92.28 L 52.71 109.06 L 53.26 109.38 L 120.96 70.33 Z" fill="#fafcff" fill-rule="nonzero" group-id="1,2" node-id="414" stroke="none" target-height="67.4648" target-width="116.9149" target-x="4.0423" target-y="41.9169"></path></g><g node-id="1383"><g node-id="1388"><g node-id="1405"><g node-id="1429"><g node-id="1526"><g node-id="1562"><g node-id="1578"><path d="M 45.68 60.28 L 46.30 59.92 C 46.23 59.97 46.17 60.05 46.16 60.18 L 45.02 68.90 L 44.40 69.26 L 45.53 60.54 C 45.55 60.41 45.60 60.33 45.68 60.28 Z" fill="#9eb5df" fill-rule="nonzero" group-id="1,3,8,25,49,146,182,198" node-id="431" stroke="none" target-height="9.340801" target-width="1.9069977" target-x="44.3968" target-y="59.9195"></path><path d="M 57.02 75.82 L 56.39 76.18 L 53.85 65.04 C 53.70 64.39 53.26 63.76 52.75 63.47 L 46.06 59.60 C 45.74 59.42 45.45 59.40 45.24 59.52 L 45.86 59.16 C 46.07 59.04 46.36 59.05 46.68 59.24 L 53.38 63.10 C 53.89 63.40 54.33 64.03 54.47 64.67 L 57.02 75.82 Z" fill="#9eb5df" fill-rule="nonzero" group-id="1,3,8,25,49,146,182,198" node-id="433" stroke="none" target-height="17.148598" target-width="11.778198" target-x="45.2368" target-y="59.0354"></path></g><path d="M 52.75 63.47 C 53.26 63.76 53.70 64.39 53.85 65.04 L 56.39 76.19 L 55.73 75.81 L 53.25 64.90 C 53.18 64.61 52.98 64.32 52.75 64.19 L 46.05 60.32 C 45.79 60.17 45.57 60.26 45.53 60.54 L 44.40 69.26 L 43.76 68.89 L 44.91 60.08 C 44.99 59.48 45.48 59.27 46.06 59.60 L 52.75 63.47 Z" fill="#83a1cc" fill-rule="nonzero" group-id="1,3,8,25,49,146,182,199" node-id="438" stroke="none" target-height="16.917103" target-width="12.627399" target-x="43.7634" target-y="59.2681"></path></g></g><path d="M 66.39 70.41 L 65.77 70.77 L 63.23 59.62 C 63.08 58.98 62.64 58.35 62.13 58.05 L 55.43 54.19 C 55.11 54.00 54.82 53.99 54.61 54.11 L 55.23 53.75 C 55.45 53.62 55.74 53.64 56.05 53.82 L 62.75 57.69 C 63.26 57.99 63.70 58.62 63.85 59.26 L 66.39 70.41 Z" fill="#9eb5df" fill-rule="nonzero" group-id="1,3,8,25,49" node-id="443" stroke="none" target-height="17.148602" target-width="11.778198" target-x="54.6118" target-y="53.6227"></path><path d="M 62.13 58.05 C 62.64 58.35 63.08 58.98 63.23 59.62 L 65.77 70.77 L 65.11 70.39 L 62.63 59.49 C 62.56 59.19 62.36 58.91 62.13 58.77 L 55.43 54.91 C 55.17 54.76 54.94 54.85 54.91 55.13 L 53.77 63.85 L 53.14 63.48 L 54.29 54.67 C 54.37 54.06 54.86 53.86 55.43 54.19 L 62.13 58.05 Z" fill="#83a1cc" fill-rule="nonzero" group-id="1,3,8,25,49,147" node-id="447" stroke="none" target-height="16.917099" target-width="12.627399" target-x="53.1385" target-y="53.8554"></path></g><g node-id="1430"><g node-id="1528"><g node-id="1563"><g node-id="1580"><g node-id="1587"><g node-id="1590"><g node-id="1594"><g node-id="1597"><g node-id="1599"><path d="M 55.38 67.07 L 66.34 60.71 L 66.34 61.48 L 55.38 67.85 Z" fill="#9eb5df" fill-rule="nonzero" group-id="1,3,8,25,50,148,183,200,207,210,214,217,219" node-id="469" stroke="none" target-height="7.142498" target-width="10.959599" target-x="55.381" target-y="60.7065"></path></g><g node-id="1600"><path d="M 55.73 54.58 C 55.61 54.51 55.51 54.39 55.44 54.24 C 55.38 54.09 55.37 53.95 55.42 53.86 L 55.45 53.80 L 44.49 60.17 L 44.46 60.23 C 44.42 60.32 44.42 60.46 44.49 60.61 C 44.55 60.76 44.65 60.88 44.77 60.95 L 55.38 67.07 L 66.34 60.71 L 55.73 54.58 Z" fill="#b6cbea" fill-rule="nonzero" group-id="1,3,8,25,50,148,183,200,207,210,214,217,220" node-id="474" stroke="none" target-height="13.273396" target-width="21.9253" target-x="44.4152" target-y="53.8007"></path><path d="M 56.17 52.37 L 55.45 53.80 L 44.49 60.17 L 45.22 58.74 C 45.46 58.25 45.54 57.61 45.45 56.87 L 43.96 45.58 L 54.91 39.21 L 56.40 50.50 C 56.50 51.24 56.42 51.88 56.17 52.37 Z" fill="#b6cbea" fill-rule="nonzero" group-id="1,3,8,25,50,148,183,200,207,210,214,217,220" node-id="476" stroke="none" target-height="20.955597" target-width="12.5425" target-x="43.9562" target-y="39.2125"></path></g><g node-id="1601"><path d="M 43.29 45.32 L 54.25 38.96 L 54.91 39.21 L 43.95 45.58 Z" fill="#dee7f8" fill-rule="nonzero" group-id="1,3,8,25,50,148,183,200,207,210,214,217,221" node-id="481" stroke="none" target-height="6.625099" target-width="11.620003" target-x="43.2917" target-y="38.9567"></path></g><path d="M 43.95 45.58 L 45.45 56.87 C 45.54 57.61 45.46 58.25 45.22 58.74 L 44.46 60.23 C 44.42 60.32 44.42 60.46 44.49 60.61 C 44.55 60.76 44.65 60.88 44.77 60.95 L 55.38 67.07 L 55.38 67.85 L 44.77 61.72 C 44.42 61.52 44.11 61.14 43.92 60.70 C 43.74 60.26 43.71 59.84 43.85 59.56 L 44.60 58.07 C 44.80 57.69 44.86 57.19 44.78 56.61 L 43.29 45.32 L 43.95 45.58 Z" fill="#83a1cc" fill-rule="nonzero" group-id="1,3,8,25,50,148,183,200,207,210,214,217,222" node-id="486" stroke="none" target-height="22.524399" target-width="12.091198" target-x="43.2919" target-y="45.3246"></path></g></g></g></g></g></g></g></g></g></g><g node-id="1389"><path d="M 46.98 55.77 C 46.98 55.77 51.73 52.80 55.47 55.27 C 62.97 60.22 62.46 61.80 62.46 61.80 C 61.95 63.96 58.83 65.63 57.36 66.31 C 57.05 66.45 56.70 66.23 56.69 65.89 C 56.63 62.91 50.10 61.76 48.34 61.02 C 45.25 59.71 46.98 55.77 46.98 55.77 Z" fill="#4c4a8b" fill-rule="nonzero" group-id="1,3,9" node-id="501" stroke="none" target-height="13.652401" target-width="17.715702" target-x="45.2515" target-y="52.7972"></path></g><g node-id="1390"><g node-id="1406"><g node-id="1431"><g node-id="1529"><g node-id="1564"><g node-id="1581"><g node-id="1588"><g node-id="1591"><g node-id="1595"><g node-id="1598"><g node-id="1603"><path d="M 56.07 48.86 C 57.08 47.42 58.76 46.67 56.83 44.44 C 56.46 44.00 57.03 43.57 56.59 42.26 C 56.31 41.42 55.19 41.38 54.55 41.30 C 52.98 41.09 51.37 41.04 51.37 41.04 C 51.37 41.04 50.84 41.80 50.59 42.14 C 50.10 42.77 49.47 43.25 48.76 43.63 C 47.95 44.07 47.02 45.15 48.87 47.73 C 48.87 47.73 50.41 49.48 48.36 52.32 C 47.12 54.02 46.66 56.31 46.50 57.92 C 46.50 57.92 49.83 61.51 56.32 55.84 C 56.32 55.84 55.01 50.38 56.07 48.86 Z" fill="#6b9ef9" fill-rule="nonzero" group-id="1,3,10,26,51,149,184,201,208,211,215,218,223" node-id="526" stroke="none" target-height="20.467503" target-width="12.259399" target-x="46.4966" target-y="41.0393"></path><path d="M 54.46 40.96 C 54.32 40.96 53.37 40.68 53.40 40.55 C 53.64 39.48 51.18 39.67 51.18 39.67 C 51.18 39.67 51.04 40.99 51.70 41.78 C 52.02 42.16 53.25 42.26 53.25 42.26 C 54.64 41.95 54.80 41.93 54.46 40.96 Z" fill="#c97f94" fill-rule="nonzero" group-id="1,3,10,26,51,149,184,201,208,211,215,218,223" node-id="528" stroke="none" target-height="2.7809982" target-width="3.7620964" target-x="51.0385" target-y="39.4813"></path></g></g></g><g node-id="1596"><path d="M 51.56 40.03 C 51.56 40.03 50.79 41.81 50.88 42.03 C 50.97 42.25 52.89 43.71 52.89 43.71 L 53.25 42.26 C 53.25 42.26 51.73 41.56 51.56 40.03 Z" fill="#3887e5" fill-rule="nonzero" group-id="1,3,10,26,51,149,184,201,208,211,216" node-id="535" stroke="none" target-height="3.677002" target-width="2.4619026" target-x="50.7902" target-y="40.0285"></path><path d="M 54.48 39.97 C 54.34 41.55 53.25 42.26 53.25 42.26 L 54.19 43.35 L 55.06 41.37 C 54.92 41.16 54.48 39.97 54.48 39.97 Z" fill="#3887e5" fill-rule="nonzero" group-id="1,3,10,26,51,149,184,201,208,211,216" node-id="537" stroke="none" target-height="3.382" target-width="1.8035965" target-x="53.2521" target-y="39.9679"></path><path d="M 54.74 35.98 C 53.34 35.07 50.13 39.00 50.13 39.00 L 50.46 39.91 L 51.25 40.89 C 51.86 41.65 52.92 41.95 53.79 41.51 C 54.12 41.35 54.41 41.08 54.60 40.67 C 55.29 39.19 56.14 36.90 54.74 35.98 Z" fill="#ecb4bf" fill-rule="nonzero" group-id="1,3,10,26,51,149,184,201,208,211,216" node-id="539" stroke="none" target-height="6.8812027" target-width="6.012501" target-x="50.1275" target-y="35.0687"></path></g></g></g></g></g></g></g></g></g><g node-id="1391"><g node-id="1407"><g node-id="1432"><path d="M 69.51 52.06 C 69.74 52.19 69.88 52.47 69.89 52.87 L 69.93 68.97 L 87.38 79.11 L 87.33 63.01 C 87.33 62.61 87.19 62.33 86.96 62.20 L 69.51 52.06 Z" fill="#9eb5df" fill-rule="nonzero" group-id="1,3,11,27,52" node-id="556" stroke="none" target-height="27.048798" target-width="17.865196" target-x="69.5117" target-y="52.0595"></path></g><g node-id="1433"><path d="M 38.66 70.91 L 38.70 87.00 L 56.15 97.14 L 56.10 81.04 C 56.09 78.98 57.55 76.46 59.35 75.42 L 86.05 60.01 C 86.95 59.49 87.77 59.44 88.36 59.78 L 70.92 49.64 C 70.33 49.30 69.50 49.35 68.60 49.87 L 41.90 65.29 C 40.10 66.32 38.65 68.84 38.66 70.91 Z" fill="#b6cbea" fill-rule="nonzero" group-id="1,3,11,27,53" node-id="561" stroke="none" target-height="47.8365" target-width="49.7152" target-x="38.6478" target-y="49.3008"></path></g><path d="M 59.35 75.42 C 57.55 76.46 56.09 78.98 56.10 81.04 L 56.15 97.14 L 58.13 95.99 L 58.08 79.90 C 58.08 79.09 58.65 78.10 59.35 77.70 L 86.05 62.28 C 86.75 61.88 87.33 62.21 87.33 63.01 L 87.38 79.11 L 89.36 77.96 L 89.31 61.87 C 89.31 59.81 87.84 58.97 86.05 60.01 L 59.35 75.42 Z" fill="#83a1cc" fill-rule="nonzero" group-id="1,3,11,27,54" node-id="566" stroke="none" target-height="38.166504" target-width="33.268204" target-x="56.0933" target-y="58.9721"></path></g></g><g node-id="1392"><g node-id="1408"><g node-id="1435"><g node-id="1530"><g node-id="1565"><g node-id="1582"><path d="M 52.00 62.52 L 52.00 63.14 C 52.00 63.25 52.07 63.36 52.22 63.45 L 55.91 65.59 C 56.21 65.76 56.68 65.76 56.98 65.59 L 69.37 58.44 C 69.52 58.35 69.60 58.23 69.60 58.12 L 69.60 57.50 C 69.60 57.61 69.52 57.73 69.37 57.82 L 56.98 64.97 C 56.68 65.14 56.20 65.14 55.90 64.97 L 52.22 62.83 C 52.07 62.74 52.00 62.63 52.00 62.52 Z" fill="#1e72c6" fill-rule="nonzero" group-id="1,3,12,28,55,150,185,202" node-id="583" stroke="none" target-height="8.261002" target-width="17.602596" target-x="51.9984" target-y="57.5002"></path></g><path d="M 52.22 62.20 C 51.93 62.37 51.92 62.65 52.22 62.83 L 55.91 64.97 C 56.20 65.14 56.68 65.14 56.98 64.97 L 69.37 57.81 C 69.67 57.64 69.67 57.36 69.38 57.19 L 65.69 55.05 C 65.39 54.88 64.91 54.88 64.61 55.05 L 52.22 62.20 Z" fill="#6b9ef9" fill-rule="nonzero" group-id="1,3,12,28,55,150,185,203" node-id="588" stroke="none" target-height="10.2642975" target-width="17.750404" target-x="51.9218" target-y="54.8767"></path></g></g></g></g><g node-id="1409"><g node-id="1436"><path d="M 64.64 55.50 L 65.22 55.84 L 65.88 55.45 L 65.30 55.11 Z" fill="#dee7f8" fill-rule="nonzero" group-id="1,3,12,29,56" node-id="599" stroke="none" target-height="0.7221031" target-width="1.2466965" target-x="64.638" target-y="55.114"></path></g><g node-id="1437"><path d="M 63.75 56.01 L 64.33 56.35 L 64.99 55.97 L 64.41 55.63 Z" fill="#dee7f8" fill-rule="nonzero" group-id="1,3,12,29,57" node-id="604" stroke="none" target-height="0.7220001" target-width="1.2467995" target-x="63.7467" target-y="55.6286"></path></g><g node-id="1438"><path d="M 62.86 56.52 L 63.44 56.86 L 64.10 56.48 L 63.52 56.14 Z" fill="#dee7f8" fill-rule="nonzero" group-id="1,3,12,29,58" node-id="609" stroke="none" target-height="0.7220993" target-width="1.2466965" target-x="62.858" target-y="56.1417"></path></g><g node-id="1439"><path d="M 61.97 57.04 L 62.55 57.38 L 63.21 57.00 L 62.63 56.66 Z" fill="#dee7f8" fill-rule="nonzero" group-id="1,3,12,29,59" node-id="614" stroke="none" target-height="0.7220001" target-width="1.2467995" target-x="61.9667" target-y="56.6563"></path></g><g node-id="1440"><path d="M 61.08 57.55 L 61.66 57.89 L 62.32 57.51 L 61.74 57.17 Z" fill="#dee7f8" fill-rule="nonzero" group-id="1,3,12,29,60" node-id="619" stroke="none" target-height="0.7220993" target-width="1.2467003" target-x="61.0755" target-y="57.1708"></path></g><g node-id="1441"><path d="M 60.18 58.07 L 60.77 58.41 L 61.43 58.02 L 60.85 57.69 Z" fill="#dee7f8" fill-rule="nonzero" group-id="1,3,12,29,61" node-id="624" stroke="none" target-height="0.7220001" target-width="1.2467003" target-x="60.1843" target-y="57.6854"></path></g><g node-id="1442"><path d="M 59.29 58.58 L 59.88 58.92 L 60.54 58.54 L 59.96 58.20 Z" fill="#dee7f8" fill-rule="nonzero" group-id="1,3,12,29,62" node-id="629" stroke="none" target-height="0.7220993" target-width="1.2467003" target-x="59.2931" target-y="58.1999"></path></g><g node-id="1443"><path d="M 58.40 59.10 L 58.99 59.44 L 59.65 59.05 L 59.07 58.71 Z" fill="#dee7f8" fill-rule="nonzero" group-id="1,3,12,29,63" node-id="634" stroke="none" target-height="0.7234001" target-width="1.2492027" target-x="58.4018" target-y="58.7131"></path></g><g node-id="1444"><path d="M 57.51 59.61 L 58.10 59.95 L 58.76 59.57 L 58.18 59.23 Z" fill="#dee7f8" fill-rule="nonzero" group-id="1,3,12,29,64" node-id="639" stroke="none" target-height="0.7220001" target-width="1.2467995" target-x="57.513" target-y="59.2276"></path></g><g node-id="1445"><path d="M 55.19 60.95 L 55.78 61.29 L 56.44 60.91 L 55.85 60.57 Z" fill="#dee7f8" fill-rule="nonzero" group-id="1,3,12,29,65" node-id="644" stroke="none" target-height="0.7220001" target-width="1.2467003" target-x="55.1915" target-y="60.568"></path></g><g node-id="1446"><path d="M 54.30 61.47 L 54.88 61.80 L 55.55 61.42 L 54.96 61.08 Z" fill="#dee7f8" fill-rule="nonzero" group-id="1,3,12,29,66" node-id="649" stroke="none" target-height="0.7220993" target-width="1.2467003" target-x="54.3003" target-y="61.0825"></path></g><g node-id="1447"><path d="M 53.41 61.98 L 53.99 62.32 L 54.66 61.94 L 54.07 61.60 Z" fill="#dee7f8" fill-rule="nonzero" group-id="1,3,12,29,67" node-id="654" stroke="none" target-height="0.7220001" target-width="1.2467995" target-x="53.409" target-y="61.5971"></path></g><g node-id="1448"><path d="M 52.52 62.49 L 53.10 62.83 L 53.76 62.45 L 53.18 62.11 Z" fill="#dee7f8" fill-rule="nonzero" group-id="1,3,12,29,68" node-id="659" stroke="none" target-height="0.7206993" target-width="1.2444" target-x="52.5178" target-y="62.1116"></path></g><g node-id="1449"><path d="M 55.92 61.38 L 56.51 61.71 L 57.17 61.33 L 56.59 60.99 Z" fill="#dee7f8" fill-rule="nonzero" group-id="1,3,12,29,69" node-id="664" stroke="none" target-height="0.7206001" target-width="1.2443008" target-x="55.9249" target-y="60.9942"></path></g><g node-id="1450"><path d="M 55.03 61.89 L 55.62 62.23 L 56.28 61.85 L 55.70 61.51 Z" fill="#dee7f8" fill-rule="nonzero" group-id="1,3,12,29,70" node-id="669" stroke="none" target-height="0.7206993" target-width="1.2444" target-x="55.0336" target-y="61.5087"></path></g><g node-id="1451"><path d="M 54.14 62.41 L 54.72 62.74 L 55.39 62.36 L 54.81 62.02 Z" fill="#dee7f8" fill-rule="nonzero" group-id="1,3,12,29,71" node-id="674" stroke="none" target-height="0.7206001" target-width="1.2444" target-x="54.1424" target-y="62.0233"></path></g><g node-id="1452"><path d="M 53.25 62.92 L 53.83 63.26 L 54.50 62.88 L 53.91 62.54 Z" fill="#dee7f8" fill-rule="nonzero" group-id="1,3,12,29,72" node-id="679" stroke="none" target-height="0.7206993" target-width="1.2444" target-x="53.2512" target-y="62.5378"></path></g><g node-id="1453"><path d="M 56.66 61.80 L 57.24 62.14 L 57.90 61.76 L 57.32 61.42 Z" fill="#dee7f8" fill-rule="nonzero" group-id="1,3,12,29,73" node-id="684" stroke="none" target-height="0.7207031" target-width="1.244503" target-x="56.6583" target-y="61.4204"></path></g><g node-id="1454"><path d="M 55.77 62.32 L 56.35 62.66 L 57.01 62.27 L 56.43 61.93 Z" fill="#dee7f8" fill-rule="nonzero" group-id="1,3,12,29,74" node-id="689" stroke="none" target-height="0.7208023" target-width="1.2446022" target-x="55.767" target-y="61.9349"></path></g><g node-id="1455"><path d="M 54.88 62.83 L 55.46 63.17 L 56.12 62.79 L 55.54 62.45 Z" fill="#dee7f8" fill-rule="nonzero" group-id="1,3,12,29,75" node-id="694" stroke="none" target-height="0.7206993" target-width="1.2444992" target-x="54.8758" target-y="62.4495"></path></g><g node-id="1456"><path d="M 53.98 63.35 L 54.57 63.68 L 55.23 63.30 L 54.65 62.96 Z" fill="#dee7f8" fill-rule="nonzero" group-id="1,3,12,29,76" node-id="699" stroke="none" target-height="0.7207985" target-width="1.2444992" target-x="53.9846" target-y="62.964"></path></g><g node-id="1457"><path d="M 57.39 62.23 L 57.97 62.57 L 58.64 62.18 L 58.05 61.85 Z" fill="#dee7f8" fill-rule="nonzero" group-id="1,3,12,29,77" node-id="704" stroke="none" target-height="0.7206001" target-width="1.2444" target-x="57.3918" target-y="61.8467"></path></g><g node-id="1458"><path d="M 56.50 62.74 L 57.08 63.08 L 57.74 62.70 L 57.16 62.36 Z" fill="#dee7f8" fill-rule="nonzero" group-id="1,3,12,29,78" node-id="709" stroke="none" target-height="0.7207031" target-width="1.2443008" target-x="56.5006" target-y="62.3612"></path></g><g node-id="1459"><path d="M 55.61 63.26 L 56.19 63.60 L 56.85 63.21 L 56.27 62.88 Z" fill="#dee7f8" fill-rule="nonzero" group-id="1,3,12,29,79" node-id="714" stroke="none" target-height="0.7206001" target-width="1.2444" target-x="55.6093" target-y="62.8758"></path></g><g node-id="1460"><path d="M 57.23 63.17 L 57.82 63.51 L 59.37 62.61 L 58.79 62.27 Z" fill="#dee7f8" fill-rule="nonzero" group-id="1,3,12,29,80" node-id="719" stroke="none" target-height="1.236599" target-width="2.1379967" target-x="57.2316" target-y="62.2715"></path></g><g node-id="1461"><path d="M 56.34 63.68 L 56.92 64.02 L 57.59 63.64 L 57.00 63.30 Z" fill="#dee7f8" fill-rule="nonzero" group-id="1,3,12,29,81" node-id="724" stroke="none" target-height="0.7220001" target-width="1.2467003" target-x="56.3404" target-y="63.3006"></path></g><g node-id="1462"><path d="M 56.62 60.12 L 57.21 60.46 L 57.87 60.08 L 57.28 59.74 Z" fill="#dee7f8" fill-rule="nonzero" group-id="1,3,12,29,82" node-id="729" stroke="none" target-height="0.7220001" target-width="1.2467003" target-x="56.6218" target-y="59.7422"></path></g><g node-id="1463"><path d="M 65.04 56.11 L 65.62 56.45 L 66.62 55.88 L 66.03 55.54 Z" fill="#dee7f8" fill-rule="nonzero" group-id="1,3,12,29,83" node-id="734" stroke="none" target-height="0.91139984" target-width="1.5746994" target-x="65.0411" target-y="55.5402"></path></g><g node-id="1464"><path d="M 64.15 56.63 L 64.73 56.97 L 65.39 56.58 L 64.81 56.25 Z" fill="#dee7f8" fill-rule="nonzero" group-id="1,3,12,29,84" node-id="739" stroke="none" target-height="0.7206001" target-width="1.2444" target-x="64.1499" target-y="56.2455"></path></g><g node-id="1465"><path d="M 63.26 57.14 L 63.84 57.48 L 64.50 57.10 L 63.92 56.76 Z" fill="#dee7f8" fill-rule="nonzero" group-id="1,3,12,29,85" node-id="744" stroke="none" target-height="0.7207031" target-width="1.2443962" target-x="63.2587" target-y="56.76"></path></g><g node-id="1466"><path d="M 62.37 57.66 L 62.95 58.00 L 63.61 57.61 L 63.03 57.27 Z" fill="#dee7f8" fill-rule="nonzero" group-id="1,3,12,29,86" node-id="749" stroke="none" target-height="0.7206001" target-width="1.2444" target-x="62.3674" target-y="57.2746"></path></g><g node-id="1467"><path d="M 61.48 58.17 L 62.06 58.51 L 62.72 58.13 L 62.14 57.79 Z" fill="#dee7f8" fill-rule="nonzero" group-id="1,3,12,29,87" node-id="754" stroke="none" target-height="0.7220993" target-width="1.2467995" target-x="61.4762" target-y="57.7877"></path></g><g node-id="1468"><path d="M 60.59 58.69 L 61.17 59.02 L 61.83 58.64 L 61.25 58.30 Z" fill="#dee7f8" fill-rule="nonzero" group-id="1,3,12,29,88" node-id="759" stroke="none" target-height="0.7206001" target-width="1.2444" target-x="60.5874" target-y="58.3023"></path></g><g node-id="1469"><path d="M 59.70 59.20 L 60.28 59.54 L 60.94 59.15 L 60.36 58.82 Z" fill="#dee7f8" fill-rule="nonzero" group-id="1,3,12,29,89" node-id="764" stroke="none" target-height="0.7206993" target-width="1.2444" target-x="59.6962" target-y="58.8168"></path></g><g node-id="1470"><path d="M 57.36 60.55 L 57.94 60.89 L 60.05 59.67 L 59.47 59.33 Z" fill="#dee7f8" fill-rule="nonzero" group-id="1,3,12,29,90" node-id="769" stroke="none" target-height="1.5575981" target-width="2.6940994" target-x="57.3552" target-y="59.3314"></path></g><g node-id="1471"><path d="M 65.21 56.86 L 65.80 57.20 L 67.35 56.30 L 66.77 55.97 Z" fill="#dee7f8" fill-rule="nonzero" group-id="1,3,12,29,91" node-id="774" stroke="none" target-height="1.235199" target-width="2.1357956" target-x="65.2135" target-y="55.9665"></path></g><g node-id="1472"><path d="M 64.32 57.38 L 64.91 57.71 L 65.57 57.33 L 64.99 56.99 Z" fill="#dee7f8" fill-rule="nonzero" group-id="1,3,12,29,92" node-id="779" stroke="none" target-height="0.7208023" target-width="1.2444992" target-x="64.3248" target-y="56.9941"></path></g><g node-id="1473"><path d="M 63.43 57.89 L 64.02 58.23 L 64.68 57.85 L 64.10 57.51 Z" fill="#dee7f8" fill-rule="nonzero" group-id="1,3,12,29,93" node-id="784" stroke="none" target-height="0.7206993" target-width="1.244503" target-x="63.4335" target-y="57.5087"></path></g><g node-id="1474"><path d="M 62.54 58.41 L 63.12 58.74 L 63.79 58.36 L 63.21 58.02 Z" fill="#dee7f8" fill-rule="nonzero" group-id="1,3,12,29,94" node-id="789" stroke="none" target-height="0.7206993" target-width="1.2444992" target-x="62.5423" target-y="58.0233"></path></g><g node-id="1475"><path d="M 61.65 58.92 L 62.23 59.26 L 62.90 58.88 L 62.31 58.54 Z" fill="#dee7f8" fill-rule="nonzero" group-id="1,3,12,29,95" node-id="794" stroke="none" target-height="0.7206993" target-width="1.2444992" target-x="61.6511" target-y="58.5378"></path></g><g node-id="1476"><path d="M 66.84 56.78 L 67.42 57.11 L 68.08 56.73 L 67.50 56.39 Z" fill="#dee7f8" fill-rule="nonzero" group-id="1,3,12,29,96" node-id="799" stroke="none" target-height="0.7206993" target-width="1.2444" target-x="66.8383" target-y="56.3927"></path></g><g node-id="1477"><path d="M 65.95 57.29 L 66.53 57.63 L 67.19 57.25 L 66.61 56.91 Z" fill="#dee7f8" fill-rule="nonzero" group-id="1,3,12,29,97" node-id="804" stroke="none" target-height="0.7206001" target-width="1.2444" target-x="65.9471" target-y="56.9073"></path></g><g node-id="1478"><path d="M 65.06 57.80 L 65.64 58.14 L 66.30 57.76 L 65.72 57.42 Z" fill="#dee7f8" fill-rule="nonzero" group-id="1,3,12,29,98" node-id="809" stroke="none" target-height="0.7207031" target-width="1.2444" target-x="65.0583" target-y="57.4204"></path></g><g node-id="1479"><path d="M 64.17 58.32 L 64.75 58.66 L 65.41 58.27 L 64.83 57.94 Z" fill="#dee7f8" fill-rule="nonzero" group-id="1,3,12,29,99" node-id="814" stroke="none" target-height="0.7206001" target-width="1.2444" target-x="64.167" target-y="57.935"></path></g><g node-id="1480"><path d="M 63.28 58.83 L 63.86 59.17 L 64.52 58.79 L 63.94 58.45 Z" fill="#dee7f8" fill-rule="nonzero" group-id="1,3,12,29,100" node-id="819" stroke="none" target-height="0.7206993" target-width="1.2444038" target-x="63.2758" target-y="58.4495"></path></g><g node-id="1481"><path d="M 62.38 59.35 L 62.97 59.68 L 63.63 59.30 L 63.05 58.96 Z" fill="#dee7f8" fill-rule="nonzero" group-id="1,3,12,29,101" node-id="824" stroke="none" target-height="0.7206001" target-width="1.2444" target-x="62.3846" target-y="58.9641"></path></g><g node-id="1482"><path d="M 60.76 59.44 L 61.34 59.77 L 62.00 59.39 L 61.42 59.05 Z" fill="#dee7f8" fill-rule="nonzero" group-id="1,3,12,29,102" node-id="829" stroke="none" target-height="0.7208023" target-width="1.2445984" target-x="60.7598" target-y="59.0523"></path></g><g node-id="1483"><path d="M 59.87 59.95 L 60.45 60.29 L 61.12 59.90 L 60.53 59.57 Z" fill="#dee7f8" fill-rule="nonzero" group-id="1,3,12,29,103" node-id="834" stroke="none" target-height="0.7221031" target-width="1.2470016" target-x="59.8686" target-y="59.5655"></path></g><g node-id="1484"><path d="M 61.49 59.86 L 62.07 60.20 L 62.74 59.82 L 62.16 59.48 Z" fill="#dee7f8" fill-rule="nonzero" group-id="1,3,12,29,104" node-id="839" stroke="none" target-height="0.7206993" target-width="1.2444" target-x="61.4934" target-y="59.4786"></path></g><g node-id="1485"><path d="M 58.09 60.98 L 58.67 61.32 L 60.22 60.42 L 59.64 60.08 Z" fill="#dee7f8" fill-rule="nonzero" group-id="1,3,12,29,105" node-id="844" stroke="none" target-height="1.2352982" target-width="2.1357002" target-x="58.0886" target-y="60.08"></path></g><g node-id="1486"><path d="M 59.71 60.89 L 60.29 61.23 L 60.96 60.84 L 60.38 60.51 Z" fill="#dee7f8" fill-rule="nonzero" group-id="1,3,12,29,106" node-id="849" stroke="none" target-height="0.7206993" target-width="1.2444" target-x="59.7133" target-y="60.5063"></path></g><g node-id="1487"><path d="M 66.68 57.71 L 67.26 58.05 L 68.82 57.16 L 68.23 56.82 Z" fill="#dee7f8" fill-rule="nonzero" group-id="1,3,12,29,107" node-id="854" stroke="none" target-height="1.2364998" target-width="2.1380005" target-x="66.6781" target-y="56.8176"></path></g><g node-id="1488"><path d="M 63.08 59.79 L 63.66 60.13 L 67.04 58.18 L 66.45 57.85 Z" fill="#dee7f8" fill-rule="nonzero" group-id="1,3,12,29,108" node-id="859" stroke="none" target-height="2.2881012" target-width="3.959301" target-x="63.0768" target-y="57.8453"></path></g><g node-id="1489"><path d="M 62.22 60.29 L 62.81 60.63 L 63.47 60.24 L 62.89 59.90 Z" fill="#dee7f8" fill-rule="nonzero" group-id="1,3,12,29,109" node-id="864" stroke="none" target-height="0.7220001" target-width="1.2467995" target-x="62.2244" target-y="59.9035"></path></g><g node-id="1490"><path d="M 61.33 60.80 L 61.92 61.14 L 62.58 60.76 L 62.00 60.42 Z" fill="#dee7f8" fill-rule="nonzero" group-id="1,3,12,29,110" node-id="869" stroke="none" target-height="0.7234001" target-width="1.2492027" target-x="61.3332" target-y="60.4166"></path></g><g node-id="1491"><path d="M 60.44 61.31 L 61.03 61.65 L 61.69 61.27 L 61.11 60.93 Z" fill="#dee7f8" fill-rule="nonzero" group-id="1,3,12,29,111" node-id="874" stroke="none" target-height="0.7220001" target-width="1.2467003" target-x="60.4444" target-y="60.9312"></path></g><g node-id="1492"><path d="M 59.55 61.83 L 60.14 62.17 L 60.80 61.78 L 60.22 61.45 Z" fill="#dee7f8" fill-rule="nonzero" group-id="1,3,12,29,112" node-id="879" stroke="none" target-height="0.7220001" target-width="1.2467003" target-x="59.5532" target-y="61.4457"></path></g><path d="M 54.72 63.77 L 56.03 64.54 L 56.70 64.15 L 55.38 63.39 Z" fill="#dee7f8" fill-rule="nonzero" group-id="1,3,12,29,113" node-id="884" stroke="none" target-height="1.1454964" target-width="1.9777985" target-x="54.7181" target-y="63.3903"></path></g></g><g node-id="1393"><g node-id="1410"><g node-id="1494"><g node-id="1531"><path d="M 48.81 67.11 L 48.55 67.26 C 48.40 67.35 48.18 67.34 47.95 67.20 C 47.48 66.93 47.10 66.27 47.10 65.74 C 47.10 65.47 47.20 65.28 47.35 65.19 L 47.61 65.04 C 47.45 65.13 47.36 65.32 47.36 65.59 C 47.36 66.12 47.74 66.78 48.21 67.05 C 48.44 67.19 48.65 67.20 48.81 67.11 Z" fill="#ffffff" fill-rule="nonzero" group-id="1,3,13,30,114,151" node-id="897" stroke="none" target-height="2.3068008" target-width="1.7084007" target-x="47.0999" target-y="65.043"></path></g><g node-id="1532"><path d="M 49.23 66.67 C 49.23 66.99 49.11 67.21 48.93 67.32 L 48.67 67.47 C 48.86 67.36 48.97 67.14 48.97 66.82 C 48.97 66.17 48.52 65.38 47.95 65.05 C 47.67 64.89 47.41 64.87 47.23 64.98 L 47.48 64.83 C 47.67 64.72 47.93 64.74 48.21 64.90 C 48.77 65.23 49.23 66.02 49.23 66.67 Z" fill="#ffffff" fill-rule="nonzero" group-id="1,3,13,30,114,152" node-id="902" stroke="none" target-height="2.746704" target-width="2.0045013" target-x="47.2267" target-y="64.7249"></path></g><path d="M 47.95 65.05 C 48.52 65.38 48.97 66.17 48.97 66.82 C 48.97 67.46 48.51 67.73 47.95 67.40 C 47.38 67.08 46.93 66.28 46.93 65.64 C 46.93 64.99 47.39 64.73 47.95 65.05 Z M 47.95 67.20 C 48.42 67.47 48.80 67.25 48.80 66.72 C 48.80 66.18 48.42 65.52 47.95 65.25 C 47.48 64.98 47.10 65.20 47.10 65.74 C 47.10 66.27 47.48 66.93 47.95 67.20" fill="#dee7f8" fill-rule="nonzero" group-id="1,3,13,30,114,153" node-id="907" stroke="none" target-height="2.998001" target-width="2.0466995" target-x="46.9269" target-y="64.7279"></path></g></g><g node-id="1411"><g node-id="1495"><path d="M 52.53 64.60 L 52.53 68.20 C 52.53 68.53 52.31 68.86 51.87 69.12 C 50.99 69.63 49.56 69.63 48.68 69.12 C 48.23 68.86 48.01 68.52 48.01 68.19 L 48.01 64.59 C 48.01 64.93 48.23 65.26 48.68 65.52 C 49.56 66.03 50.99 66.03 51.87 65.52 C 52.31 65.27 52.53 64.94 52.53 64.60 Z" fill="#dee7f8" fill-rule="nonzero" group-id="1,3,13,31,115" node-id="916" stroke="none" target-height="5.0402985" target-width="4.523102" target-x="48.0072" target-y="64.5893"></path></g><g node-id="1496"><path d="M 51.86 63.67 C 52.75 64.18 52.75 65.01 51.87 65.52 C 50.99 66.03 49.56 66.03 48.68 65.52 C 47.79 65.01 47.79 64.18 48.67 63.67 C 49.55 63.16 50.98 63.16 51.86 63.67 Z" fill="#ffffff" fill-rule="nonzero" group-id="1,3,13,31,116" node-id="921" stroke="none" target-height="2.8739014" target-width="4.966202" target-x="47.7873" target-y="63.1585"></path></g><g node-id="1497"><path d="M 51.65 63.79 C 52.41 64.24 52.42 64.95 51.66 65.40 C 50.90 65.84 49.66 65.84 48.89 65.40 C 48.13 64.95 48.12 64.24 48.88 63.79 C 49.64 63.35 50.88 63.35 51.65 63.79 Z" fill="#dee7f8" fill-rule="nonzero" group-id="1,3,13,31,117" node-id="926" stroke="none" target-height="2.4859009" target-width="4.295803" target-x="48.1224" target-y="63.3526"></path></g><path d="M 48.89 65.40 C 49.66 65.84 50.90 65.84 51.66 65.40 C 51.82 65.30 51.95 65.19 52.04 65.07 C 51.95 64.95 51.82 64.84 51.65 64.74 C 50.88 64.30 49.64 64.30 48.88 64.74 C 48.72 64.84 48.59 64.95 48.50 65.06 C 48.59 65.18 48.72 65.30 48.89 65.40 Z" fill="#a0533f" fill-rule="nonzero" group-id="1,3,13,31,118" node-id="931" stroke="none" target-height="1.5407028" target-width="3.5489998" target-x="48.4958" target-y="64.2978"></path></g></g><g node-id="1394"><g node-id="1412"><path d="M 91.35 25.46 L 91.32 33.17 C 91.32 33.48 91.21 33.70 91.04 33.80 L 90.25 34.26 C 90.43 34.16 90.54 33.94 90.54 33.62 L 90.56 25.92 C 90.56 25.29 90.12 24.52 89.57 24.20 L 75.67 16.18 C 75.39 16.02 75.15 16.01 74.97 16.11 L 75.75 15.65 C 75.93 15.55 76.18 15.56 76.46 15.72 L 90.36 23.75 C 90.90 24.07 91.35 24.83 91.35 25.46 Z" fill="#9eb5df" fill-rule="nonzero" group-id="1,3,14,32" node-id="940" stroke="none" target-height="18.710999" target-width="16.381897" target-x="74.967" target-y="15.5502"></path></g><g node-id="1413"><path d="M 89.57 24.21 C 90.12 24.52 90.56 25.29 90.56 25.92 L 90.54 33.63 C 90.54 34.25 90.09 34.51 89.54 34.19 L 75.64 26.17 C 75.09 25.85 74.65 25.09 74.66 24.46 L 74.68 16.75 C 74.68 16.12 75.12 15.86 75.67 16.18 L 89.57 24.21 Z" fill="#dee7f8" fill-rule="nonzero" group-id="1,3,14,33" node-id="945" stroke="none" target-height="18.6436" target-width="15.9068985" target-x="74.6542" target-y="15.8647"></path></g><g node-id="1414"><g node-id="1499"><path d="M 79.36 23.91 C 80.01 24.29 80.64 25.16 81.21 26.31 C 80.64 25.16 80.01 24.29 79.36 23.92 C 79.33 23.90 79.29 23.88 79.25 23.86 L 79.24 26.94 L 75.64 24.86 L 75.64 23.64 C 75.92 23.91 76.15 24.10 76.35 24.22 C 76.93 24.55 77.32 24.32 78.11 23.87 C 78.52 23.64 78.94 23.67 79.36 23.91 Z" fill="#a6c2ff" fill-rule="nonzero" group-id="1,3,14,34,119" node-id="952" stroke="none" target-height="3.3006" target-width="5.569298" target-x="75.6395" target-y="23.637"></path></g><g node-id="1500"><path d="M 89.58 28.33 L 89.56 32.90 L 87.53 31.73 L 87.54 28.69 C 87.87 28.83 88.18 28.90 88.44 28.87 C 88.45 28.87 88.45 28.87 88.45 28.87 C 88.46 28.87 88.46 28.87 88.47 28.87 C 88.47 28.87 88.48 28.87 88.49 28.87 C 88.49 28.87 88.50 28.87 88.50 28.87 C 88.51 28.86 88.52 28.86 88.53 28.86 C 88.54 28.86 88.55 28.86 88.56 28.85 C 89.16 28.73 89.56 28.35 89.58 28.33 Z" fill="#1e72c6" fill-rule="nonzero" group-id="1,3,14,34,120" node-id="957" stroke="none" target-height="4.573" target-width="2.042099" target-x="87.5339" target-y="28.3262"></path></g><g node-id="1501"><path d="M 87.26 28.55 C 87.36 28.61 87.45 28.65 87.54 28.69 L 87.53 31.73 L 84.52 29.99 L 84.53 27.20 C 84.63 27.16 84.71 27.14 84.78 27.12 C 85.16 27.04 85.39 27.00 85.66 27.16 C 85.85 27.27 86.06 27.47 86.35 27.80 C 86.64 28.12 86.95 28.37 87.26 28.55 Z" fill="#3887e5" fill-rule="nonzero" group-id="1,3,14,34,121" node-id="962" stroke="none" target-height="4.7243996" target-width="3.021904" target-x="84.5206" target-y="27.0033"></path></g><g node-id="1502"><path d="M 87.67 25.73 L 87.67 26.43 L 84.56 24.64 L 84.56 23.94 Z" fill="#b6cbea" fill-rule="nonzero" group-id="1,3,14,34,122" node-id="967" stroke="none" target-height="2.4878998" target-width="3.1080017" target-x="84.559" target-y="23.9409"></path></g><g node-id="1503"><path d="M 89.20 25.13 L 89.20 25.83 L 84.56 23.15 L 84.57 22.46 Z" fill="#b6cbea" fill-rule="nonzero" group-id="1,3,14,34,123" node-id="972" stroke="none" target-height="3.3700008" target-width="4.639702" target-x="84.5632" target-y="22.4555"></path></g><g node-id="1504"><path d="M 79.36 23.92 C 80.01 24.29 80.64 25.16 81.21 26.31 C 81.22 26.35 81.24 26.38 81.26 26.41 C 81.48 26.87 81.75 27.17 82.06 27.34 C 82.90 27.83 83.94 27.40 84.53 27.20 L 84.52 29.99 L 89.56 32.90 L 79.24 26.94 L 79.25 23.86 C 79.29 23.88 79.33 23.90 79.36 23.92 Z" fill="#6b9ef9" fill-rule="nonzero" group-id="1,3,14,34,124" node-id="977" stroke="none" target-height="9.040901" target-width="10.322006" target-x="79.241" target-y="23.8583"></path></g><g node-id="1505"><path d="M 79.04 20.75 L 79.04 21.45 L 77.83 20.75 L 77.83 20.05 Z" fill="#8c4031" fill-rule="nonzero" group-id="1,3,14,34,125" node-id="982" stroke="none" target-height="1.3936005" target-width="1.2126999" target-x="77.8263" target-y="20.0537"></path></g><g node-id="1506"><path d="M 80.57 20.15 L 80.57 20.84 L 75.94 18.17 L 75.94 17.47 Z" fill="#b6cbea" fill-rule="nonzero" group-id="1,3,14,34,126" node-id="987" stroke="none" target-height="3.3700008" target-width="4.639595" target-x="75.9352" target-y="17.4741"></path></g><path d="M 77.33 19.76 L 77.33 20.46 L 75.93 19.65 L 75.93 18.96 Z" fill="#b6cbea" fill-rule="nonzero" group-id="1,3,14,34,127" node-id="992" stroke="none" target-height="1.4997005" target-width="1.3963013" target-x="75.9309" target-y="18.9594"></path></g></g><g node-id="1395"><g node-id="1415"><path d="M 78.80 32.51 L 78.78 40.22 C 78.78 40.53 78.67 40.75 78.49 40.86 L 77.70 41.31 C 77.88 41.21 77.99 40.99 77.99 40.68 L 78.01 32.97 C 78.02 32.34 77.57 31.58 77.02 31.26 L 63.13 23.23 C 62.85 23.08 62.60 23.06 62.42 23.16 L 63.21 22.71 C 63.39 22.60 63.64 22.62 63.91 22.78 L 77.81 30.80 C 78.36 31.12 78.80 31.88 78.80 32.51 Z" fill="#9eb5df" fill-rule="nonzero" group-id="1,3,15,35" node-id="1001" stroke="none" target-height="18.711" target-width="16.381897" target-x="62.4217" target-y="22.6033"></path></g><g node-id="1416"><path d="M 77.03 31.26 C 77.57 31.58 78.02 32.34 78.01 32.97 L 77.99 40.68 C 77.99 41.31 77.54 41.56 77.00 41.25 L 63.10 33.22 C 62.55 32.90 62.11 32.14 62.11 31.51 L 62.13 23.80 C 62.13 23.17 62.58 22.92 63.13 23.23 L 77.03 31.26 Z" fill="#dee7f8" fill-rule="nonzero" group-id="1,3,15,36" node-id="1006" stroke="none" target-height="18.6436" target-width="15.906902" target-x="62.1089" target-y="22.9178"></path></g><g node-id="1417"><g node-id="1508"><path d="M 69.82 28.47 L 69.81 33.53 L 69.19 33.17 L 69.21 28.12 Z" fill="#b6cbea" fill-rule="nonzero" group-id="1,3,15,37,128" node-id="1013" stroke="none" target-height="5.4097023" target-width="0.62590027" target-x="69.1934" target-y="28.1162"></path></g><g node-id="1509"><path d="M 64.01 29.42 L 64.00 32.63 L 63.39 32.27 L 63.40 29.07 Z" fill="#6262aa" fill-rule="nonzero" group-id="1,3,15,37,129" node-id="1018" stroke="none" target-height="3.5542984" target-width="0.6188965" target-x="63.3898" target-y="29.0722"></path></g><g node-id="1510"><path d="M 75.56 32.88 L 75.55 33.37 L 73.05 31.92 L 73.05 31.43 Z" fill="#b6cbea" fill-rule="nonzero" group-id="1,3,15,37,130" node-id="1023" stroke="none" target-height="1.9360008" target-width="2.5029984" target-x="73.0528" target-y="31.4329"></path></g><g node-id="1511"><g node-id="1534"><path d="M 65.17 31.23 L 65.16 33.30 L 64.55 32.94 L 64.55 30.87 Z" fill="#6262aa" fill-rule="nonzero" group-id="1,3,15,37,131,154" node-id="1030" stroke="none" target-height="2.4244995" target-width="0.6175003" target-x="64.5488" target-y="30.8722"></path></g><g node-id="1535"><path d="M 67.49 31.81 L 67.48 34.63 L 66.87 34.28 L 66.88 31.46 Z" fill="#6262aa" fill-rule="nonzero" group-id="1,3,15,37,131,155" node-id="1035" stroke="none" target-height="3.1774979" target-width="0.61779785" target-x="66.8685" target-y="31.4575"></path></g><g node-id="1536"><path d="M 66.33 29.74 L 66.32 33.97 L 65.71 33.61 L 65.72 29.39 Z" fill="#6262aa" fill-rule="nonzero" group-id="1,3,15,37,131,156" node-id="1040" stroke="none" target-height="4.5778008" target-width="0.623497" target-x="65.7078" target-y="29.388"></path></g><g node-id="1537"><path d="M 64.02 25.12 L 64.01 28.91 L 63.40 28.56 L 63.41 24.77 Z" fill="#b6cbea" fill-rule="nonzero" group-id="1,3,15,37,131,157" node-id="1045" stroke="none" target-height="4.138399" target-width="0.62049866" target-x="63.4004" target-y="24.7695"></path></g><g node-id="1538"><path d="M 69.80 34.11 L 69.80 35.97 L 69.19 35.62 L 69.19 33.76 Z" fill="#6262aa" fill-rule="nonzero" group-id="1,3,15,37,131,158" node-id="1050" stroke="none" target-height="2.215599" target-width="0.6167984" target-x="69.1865" target-y="33.7587"></path></g><g node-id="1539"><path d="M 65.18 25.79 L 65.17 30.92 L 64.56 30.57 L 64.57 25.44 Z" fill="#b6cbea" fill-rule="nonzero" group-id="1,3,15,37,131,159" node-id="1055" stroke="none" target-height="5.4813995" target-width="0.62609863" target-x="64.5556" target-y="25.4387"></path></g><g node-id="1540"><path d="M 68.65 30.49 L 68.64 35.31 L 68.03 34.95 L 68.04 30.14 Z" fill="#6262aa" fill-rule="nonzero" group-id="1,3,15,37,131,160" node-id="1060" stroke="none" target-height="5.167799" target-width="0.625206" target-x="68.0275" target-y="30.1373"></path></g><g node-id="1541"><path d="M 66.34 26.46 L 66.33 29.31 L 65.72 28.96 L 65.73 26.11 Z" fill="#b6cbea" fill-rule="nonzero" group-id="1,3,15,37,131,161" node-id="1065" stroke="none" target-height="3.2010002" target-width="0.6195984" target-x="65.721" target-y="26.1078"></path></g><g node-id="1542"><path d="M 72.13 34.58 L 72.12 37.31 L 71.51 36.96 L 71.51 34.23 Z" fill="#6262aa" fill-rule="nonzero" group-id="1,3,15,37,131,162" node-id="1070" stroke="none" target-height="3.0882988" target-width="0.61930084" target-x="71.5062" target-y="34.2252"></path></g><g node-id="1543"><path d="M 68.66 27.80 L 68.65 29.97 L 68.04 29.62 L 68.05 27.45 Z" fill="#b6cbea" fill-rule="nonzero" group-id="1,3,15,37,131,163" node-id="1075" stroke="none" target-height="2.5228004" target-width="0.61779785" target-x="68.0426" target-y="27.4471"></path></g><g node-id="1544"><path d="M 70.98 29.14 L 70.97 32.60 L 70.36 32.25 L 70.37 28.79 Z" fill="#b6cbea" fill-rule="nonzero" group-id="1,3,15,37,131,164" node-id="1080" stroke="none" target-height="3.8167" target-width="0.6195984" target-x="70.3587" target-y="28.7864"></path></g><g node-id="1545"><path d="M 76.68 37.90 L 76.67 38.39 L 73.04 36.29 L 73.04 35.80 Z" fill="#b6cbea" fill-rule="nonzero" group-id="1,3,15,37,131,165" node-id="1085" stroke="none" target-height="2.5895996" target-width="3.6352005" target-x="73.0404" target-y="35.8031"></path></g><g node-id="1546"><path d="M 75.88 36.35 L 75.88 36.84 L 73.04 35.20 L 73.04 34.71 Z" fill="#b6cbea" fill-rule="nonzero" group-id="1,3,15,37,131,166" node-id="1090" stroke="none" target-height="2.128502" target-width="2.8363953" target-x="73.0435" target-y="34.711"></path></g><g node-id="1547"><path d="M 72.14 29.81 L 72.13 34.15 L 71.52 33.79 L 71.53 29.46 Z" fill="#b6cbea" fill-rule="nonzero" group-id="1,3,15,37,131,167" node-id="1095" stroke="none" target-height="4.692499" target-width="0.6238022" target-x="71.5152" target-y="29.4555"></path></g><g node-id="1548"><path d="M 77.16 35.99 L 77.16 36.48 L 73.05 34.11 L 73.05 33.62 Z" fill="#b6cbea" fill-rule="nonzero" group-id="1,3,15,37,131,168" node-id="1100" stroke="none" target-height="2.8666" target-width="4.1112976" target-x="73.0466" target-y="33.617"></path></g><g node-id="1549"><path d="M 76.26 34.38 L 76.26 34.87 L 73.05 33.02 L 73.05 32.52 Z" fill="#b6cbea" fill-rule="nonzero" group-id="1,3,15,37,131,169" node-id="1105" stroke="none" target-height="2.3457031" target-width="3.2127" target-x="73.0497" target-y="32.5249"></path></g><path d="M 75.54 38.34 L 75.54 38.83 L 73.04 37.39 L 73.04 36.90 Z" fill="#b6cbea" fill-rule="nonzero" group-id="1,3,15,37,131,170" node-id="1110" stroke="none" target-height="1.9360008" target-width="2.5029984" target-x="73.0373" target-y="36.8971"></path></g><g node-id="1512"><path d="M 70.97 33.05 L 70.96 36.64 L 70.35 36.29 L 70.36 32.70 Z" fill="#6262aa" fill-rule="nonzero" group-id="1,3,15,37,132" node-id="1116" stroke="none" target-height="3.9477997" target-width="0.62000275" target-x="70.3472" target-y="32.6956"></path></g><g node-id="1513"><path d="M 67.50 27.13 L 67.49 31.36 L 66.88 31.01 L 66.89 26.78 Z" fill="#b6cbea" fill-rule="nonzero" group-id="1,3,15,37,133" node-id="1121" stroke="none" target-height="4.5851" target-width="0.6218033" target-x="66.8778" target-y="26.7779"></path></g><path d="M 76.69 32.44 L 76.69 32.93 L 73.06 30.83 L 73.06 30.34 Z" fill="#b6cbea" fill-rule="nonzero" group-id="1,3,15,37,134" node-id="1126" stroke="none" target-height="2.5897007" target-width="3.6352005" target-x="73.0559" target-y="30.3388"></path></g></g><g node-id="1396"><g node-id="1418"><g node-id="1515"><path d="M 96.54 44.71 L 96.51 52.34 C 96.51 52.68 96.39 52.91 96.20 53.02 L 95.14 53.64 C 95.33 53.53 95.45 53.29 95.45 52.96 L 95.48 45.33 L 96.54 44.71 Z" fill="#9eb5df" fill-rule="nonzero" group-id="1,3,16,38,135" node-id="1137" stroke="none" target-height="8.928902" target-width="1.3928986" target-x="95.1427" target-y="44.7119"></path></g><g node-id="1516"><path d="M 95.48 45.33 L 95.45 52.96 C 95.45 53.63 94.97 53.91 94.38 53.57 L 86.41 48.96 C 85.82 48.62 85.35 47.80 85.35 47.12 L 85.37 39.49 L 95.48 45.33 Z" fill="#dee7f8" fill-rule="nonzero" group-id="1,3,16,38,136" node-id="1142" stroke="none" target-height="14.412102" target-width="10.127899" target-x="85.3473" target-y="39.4946"></path></g><g node-id="1517"><g node-id="1551"><path d="M 96.54 43.18 L 96.54 44.71 L 95.48 45.33 L 95.48 43.79 C 95.48 43.12 95.01 42.29 94.42 41.95 L 86.44 37.35 C 86.15 37.18 85.88 37.16 85.69 37.28 L 86.75 36.66 C 86.94 36.55 87.21 36.56 87.50 36.73 L 95.48 41.34 C 96.06 41.68 96.54 42.50 96.54 43.18 Z" fill="#1e72c6" fill-rule="nonzero" group-id="1,3,16,38,137,171" node-id="1149" stroke="none" target-height="8.778603" target-width="10.853004" target-x="85.6876" target-y="36.5496"></path></g><path d="M 94.42 41.95 C 95.01 42.29 95.48 43.12 95.48 43.80 L 95.48 45.33 L 85.37 39.49 L 85.38 37.96 C 85.38 37.29 85.86 37.01 86.44 37.35 L 94.42 41.95 Z" fill="#6b9ef9" fill-rule="nonzero" group-id="1,3,16,38,137,172" node-id="1154" stroke="none" target-height="8.317501" target-width="10.110603" target-x="85.3708" target-y="37.0107"></path></g></g><g node-id="1419"><path d="M 88.23 42.99 L 87.34 43.06 L 87.47 43.75 L 88.10 43.73 L 88.09 47.41 L 88.76 47.79 L 88.77 43.30 Z" fill="#3a3a77" fill-rule="nonzero" group-id="1,3,16,39" node-id="1161" stroke="none" target-height="4.801399" target-width="1.4320984" target-x="87.3384" target-y="42.9903"></path><g node-id="1518"><path d="M 92.16 47.93 L 92.68 48.23 L 92.68 48.88 L 92.16 48.58 L 92.16 49.75 L 91.50 49.38 L 91.50 48.20 L 89.77 47.20 L 89.77 46.69 L 91.49 44.87 L 92.17 45.26 L 92.16 47.93 Z M 91.51 46.22 C 91.51 46.13 91.51 46.04 91.51 45.95 C 91.47 46.01 91.42 46.08 91.37 46.15 L 90.54 46.99 L 91.51 47.55 L 91.51 46.22" fill="#3a3a77" fill-rule="nonzero" group-id="1,3,16,39,138" node-id="1165" stroke="none" target-height="4.8810005" target-width="2.9098969" target-x="89.772" target-y="44.8723"></path></g></g></g><path d="M 57.82 61.86 C 57.80 61.84 57.76 61.82 57.72 61.79 C 57.49 61.66 57.04 61.43 56.89 61.37 C 56.83 61.34 56.77 61.32 56.73 61.29 C 56.63 61.24 56.59 61.19 56.66 61.18 C 56.76 61.18 56.87 61.21 57.00 61.22 C 57.13 61.23 57.68 61.20 57.53 61.05 C 57.53 61.05 57.53 61.05 57.52 61.05 C 57.48 61.02 57.38 61.05 57.26 61.04 C 57.13 61.04 56.88 60.99 56.71 60.94 C 56.55 60.89 56.43 60.88 56.17 60.86 C 55.93 60.85 55.50 60.73 55.28 60.63 C 55.07 60.76 54.86 60.89 54.65 61.02 C 54.69 61.04 54.73 61.06 54.76 61.08 C 54.92 61.17 55.03 61.27 55.11 61.40 C 55.19 61.56 55.45 61.75 55.62 61.88 C 55.75 61.98 55.98 62.19 56.16 62.29 C 56.21 62.32 56.25 62.34 56.29 62.35 C 56.48 62.40 56.44 62.32 56.39 62.26 C 56.35 62.19 55.98 61.91 55.95 61.84 C 55.91 61.79 55.97 61.79 56.04 61.83 C 56.05 61.83 56.06 61.84 56.07 61.85 C 56.12 61.89 56.41 62.12 56.66 62.26 C 56.81 62.35 56.94 62.40 57.02 62.38 C 57.23 62.32 57.15 62.31 57.02 62.21 C 56.90 62.11 56.51 61.88 56.38 61.76 C 56.37 61.75 56.32 61.70 56.49 61.77 C 56.66 61.85 57.27 62.18 57.52 62.29 C 57.56 62.31 57.76 62.31 57.61 62.18 C 57.49 62.08 57.13 61.85 56.86 61.69 C 56.80 61.66 56.74 61.62 56.69 61.60 C 56.67 61.59 56.66 61.53 56.80 61.59 C 56.94 61.65 57.58 61.95 57.75 61.98 C 57.93 62.01 57.95 61.95 57.82 61.86 Z" fill="#ecb4bf" fill-rule="nonzero" group-id="1,3" node-id="1170" stroke="none" target-height="1.7733002" target-width="3.3040009" target-x="54.6499" target-y="60.6308"></path><path d="M 55.53 60.62 C 54.39 59.36 51.41 55.97 50.78 54.78 C 50.44 54.15 50.48 46.65 50.00 45.35 C 49.51 44.02 48.81 44.01 48.49 44.05 C 47.67 44.17 47.66 45.30 47.62 45.65 C 47.49 46.91 48.23 52.49 48.32 54.64 C 48.33 54.97 48.42 55.30 48.64 55.57 C 49.59 56.69 53.06 60.72 55.00 61.47 C 55.21 61.37 55.65 60.93 55.53 60.62 Z" fill="#3887e5" fill-rule="nonzero" group-id="1,3" node-id="1172" stroke="none" target-height="17.462101" target-width="8.162697" target-x="47.4886" target-y="44.0069"></path><path d="M 56.83 44.43 C 56.93 44.56 57.02 44.67 57.11 44.78 C 57.04 43.86 56.95 43.13 56.83 42.80 C 56.76 42.62 56.69 42.47 56.61 42.33 C 57.01 43.58 56.47 44.01 56.83 44.43 Z" fill="#3887e5" fill-rule="nonzero" group-id="1,3,17" node-id="1176" stroke="none" target-height="2.4512978" target-width="0.63899994" target-x="56.4666" target-y="42.3306"></path><path d="M 62.35 58.07 C 61.21 56.82 58.23 53.42 57.60 52.23 C 57.43 51.90 57.35 49.66 57.25 47.43 C 56.91 47.88 56.45 48.32 56.07 48.86 C 55.48 49.72 55.63 51.83 55.88 53.50 C 57.18 55.02 60.10 58.26 61.83 58.92 C 62.04 58.82 62.48 58.38 62.35 58.07 Z" fill="#3887e5" fill-rule="nonzero" group-id="1,3,17" node-id="1178" stroke="none" target-height="11.495701" target-width="7.000099" target-x="55.4761" target-y="47.4263"></path><path d="M 64.27 64.97 L 64.27 65.60 C 64.27 65.69 64.31 65.77 64.40 65.85 L 68.12 69.01 C 68.39 69.24 68.96 69.27 69.30 69.08 L 75.53 65.48 C 75.68 65.39 75.76 65.28 75.76 65.16 L 75.75 64.54 C 75.75 64.65 75.68 64.77 75.53 64.85 L 69.30 68.45 C 68.95 68.65 68.39 68.62 68.12 68.39 L 64.40 65.22 C 64.31 65.15 64.27 65.06 64.27 64.97 Z" fill="#1e72c6" fill-rule="nonzero" group-id="1,3,18,40,139,173,186,204" node-id="1193" stroke="none" target-height="4.7351" target-width="11.489296" target-x="64.2665" target-y="64.5396"></path><path d="M 64.49 64.66 C 64.23 64.81 64.19 65.05 64.40 65.22 L 68.12 68.39 C 68.39 68.62 68.95 68.65 69.30 68.45 L 75.53 64.85 C 75.87 64.66 75.82 64.33 75.42 64.17 L 69.97 62.01 C 69.67 61.89 69.25 61.91 68.99 62.06 L 64.49 64.66 Z" fill="#6b9ef9" fill-rule="nonzero" group-id="1,3,18,40,139,173,186,205" node-id="1198" stroke="none" target-height="6.7624016" target-width="11.676895" target-x="64.1911" target-y="61.8855"></path><path d="M 68.21 59.33 L 68.21 66.35 L 68.85 66.72 L 68.85 59.71 Z" fill="#1e72c6" fill-rule="nonzero" group-id="1,3,18,40,140,174,187" node-id="1210" stroke="none" target-height="7.3921967" target-width="0.6460037" target-x="68.2054" target-y="59.3311"></path><path d="M 68.85 59.71 L 68.85 66.72 L 72.72 64.49 L 72.72 57.47 Z" fill="#3887e5" fill-rule="nonzero" group-id="1,3,18,40,140,174,188" node-id="1215" stroke="none" target-height="9.251396" target-width="3.8703995" target-x="68.8514" target-y="57.4719"></path><path d="M 59.68 55.20 L 59.71 68.74 C 59.71 68.94 59.78 69.08 59.89 69.15 L 60.43 69.46 C 60.54 69.53 60.70 69.52 60.88 69.42 L 78.72 59.12 C 79.06 58.92 79.35 58.43 79.35 58.03 L 79.31 44.49 C 79.31 44.28 79.23 44.13 79.11 44.07 C 79.12 44.07 79.12 44.08 79.13 44.08 L 78.59 43.77 C 78.48 43.70 78.32 43.71 78.14 43.81 L 60.31 54.11 C 59.96 54.31 59.68 54.80 59.68 55.20 Z" fill="#6b9ef9" fill-rule="nonzero" group-id="1,3,18,40,141,175,189,206,209,212" node-id="1232" stroke="none" target-height="25.824299" target-width="19.670502" target-x="59.6765" target-y="43.7037"></path><path d="M 60.22 55.51 L 60.25 69.06 C 60.25 69.46 60.53 69.62 60.88 69.42 L 78.72 59.12 C 79.06 58.92 79.35 58.43 79.35 58.03 L 79.31 44.49 C 79.31 44.09 79.03 43.93 78.68 44.13 L 60.84 54.43 C 60.50 54.63 60.21 55.11 60.22 55.51 Z" fill="#1e72c6" fill-rule="nonzero" group-id="1,3,18,40,141,175,189,206,209,213" node-id="1237" stroke="none" target-height="25.692303" target-width="19.133598" target-x="60.2134" target-y="43.9259"></path><path d="M 53.54 33.99 C 53.54 33.99 53.03 33.80 52.52 33.78 C 52.50 33.77 52.47 33.76 52.45 33.75 C 51.63 33.51 50.74 33.99 50.00 34.46 C 49.68 34.66 49.33 34.90 49.22 35.23 C 49.16 35.41 49.18 35.62 49.13 35.80 C 49.03 36.18 48.66 36.47 48.51 36.84 C 48.43 37.05 48.42 37.28 48.41 37.50 C 48.41 37.86 48.40 38.22 48.40 38.58 C 48.40 38.73 48.40 38.88 48.46 39.01 C 48.56 39.20 48.80 39.30 48.92 39.48 C 49.10 39.73 49.00 40.07 49.08 40.37 C 49.16 40.63 49.38 40.84 49.48 41.10 C 49.58 41.35 49.56 41.62 49.55 41.89 C 49.52 42.31 49.49 42.73 49.47 43.15 C 49.45 43.40 49.43 43.66 49.50 43.90 C 49.54 44.05 49.62 44.20 49.65 44.37 C 49.69 44.55 49.67 44.76 49.66 44.95 C 49.61 45.51 49.57 46.07 49.52 46.63 C 49.50 46.88 49.48 47.15 49.57 47.39 C 49.66 47.63 49.90 47.84 50.18 47.83 C 50.51 47.83 50.77 47.57 51.08 47.45 C 51.20 47.41 51.33 47.38 51.46 47.36 C 51.78 47.30 52.31 47.45 52.42 47.17 C 53.08 45.38 51.88 46.48 51.74 42.88 C 51.73 42.41 51.59 42.15 51.28 40.76 C 51.28 40.71 51.28 40.67 51.28 40.63 C 51.29 40.14 50.76 39.40 50.67 38.92 C 50.66 38.87 50.65 38.82 50.65 38.78 C 50.81 38.21 51.28 37.61 52.33 37.07 C 52.33 37.07 54.45 35.71 54.96 36.53 C 55.27 37.04 55.42 38.05 55.25 39.00 C 55.73 37.20 56.47 35.01 53.54 33.99 Z" fill="#a0533f" fill-rule="nonzero" group-id="1,3" node-id="1247" stroke="none" target-height="14.329697" target-width="8.069702" target-x="48.3956" target-y="33.5054"></path></g><g node-id="1384"><g node-id="1399"><g node-id="1421"><path d="M 27.25 76.42 L 27.75 73.71 L 27.13 72.75 L 25.80 72.06 L 24.25 71.82 L 22.57 72.22 L 21.28 73.12 L 21.28 74.55 L 21.61 76.42 Z" fill="#a0533f" fill-rule="nonzero" group-id="1,4,19,41" node-id="1256" stroke="none" target-height="4.594101" target-width="6.4711" target-x="21.2787" target-y="71.8232"></path><g node-id="1522"><path d="M 26.92 72.34 C 28.32 73.23 28.33 74.67 26.94 75.56 C 25.55 76.45 23.28 76.45 21.88 75.56 C 20.48 74.67 20.48 73.23 21.87 72.34 C 23.26 71.45 25.52 71.45 26.92 72.34 Z M 22.31 75.29 C 23.47 76.03 25.35 76.03 26.51 75.29 C 27.67 74.55 27.66 73.35 26.50 72.61 C 25.33 71.87 23.45 71.87 22.29 72.61 C 21.14 73.35 21.14 74.55 22.31 75.29" fill="#a6c2ff" fill-rule="nonzero" group-id="1,4,19,41,142" node-id="1260" stroke="none" target-height="5.0013046" target-width="7.8481007" target-x="20.4788" target-y="71.4516"></path></g></g></g><g node-id="1400"><g node-id="1422"><g node-id="1523"><g node-id="1556"><g node-id="1570"><path d="M 26.79 65.80 C 26.08 66.83 25.22 69.83 25.98 70.78 C 26.75 71.72 28.86 70.26 29.56 69.23 C 30.27 68.20 30.22 66.59 29.45 65.65 C 28.68 64.70 27.49 64.77 26.79 65.80 Z" fill="#6b9ef9" fill-rule="nonzero" group-id="1,4,20,42,143,176,190" node-id="1275" stroke="none" target-height="7.0242004" target-width="5.0508995" target-x="25.2161" target-y="64.6996"></path></g></g><g node-id="1557"><g node-id="1571"><path d="M 20.26 68.80 C 21.43 69.15 23.98 70.92 24.01 72.13 C 24.05 73.34 21.56 73.53 20.38 73.18 C 19.21 72.82 18.23 71.55 18.19 70.34 C 18.16 69.13 19.08 68.44 20.26 68.80 Z" fill="#6b9ef9" fill-rule="nonzero" group-id="1,4,20,42,143,177,191" node-id="1283" stroke="none" target-height="5.0923004" target-width="5.8879013" target-x="18.1577" target-y="68.4424"></path></g></g><g node-id="1558"><g node-id="1572"><path d="M 24.90 64.51 C 25.29 66.09 24.97 69.06 23.79 69.59 C 22.62 70.12 21.04 68.00 20.64 66.42 C 20.25 64.84 20.89 63.13 22.06 62.60 C 23.24 62.07 24.51 62.92 24.90 64.51 Z" fill="#6b9ef9" fill-rule="nonzero" group-id="1,4,20,42,143,178,192" node-id="1291" stroke="none" target-height="8.049702" target-width="5.042099" target-x="20.2516" target-y="62.0696"></path></g><path d="M 26.73 70.99 C 26.85 72.66 26.05 77.49 24.82 77.65 C 23.58 77.82 22.39 73.25 22.27 71.59 C 22.14 69.93 23.05 68.45 24.28 68.28 C 25.51 68.12 26.61 69.33 26.73 70.99 Z" fill="#6b9ef9" fill-rule="nonzero" group-id="1,4,20,42,143,178,193" node-id="1296" stroke="none" target-height="9.698097" target-width="4.710001" target-x="22.1446" target-y="68.1201"></path></g></g></g></g><g node-id="1401"><g node-id="1423"><path d="M 26.94 75.39 C 25.55 76.28 23.29 76.28 21.88 75.39 C 21.33 75.04 20.99 74.77 20.88 74.31 L 21.70 79.32 C 21.76 79.65 22.06 79.96 22.60 80.19 C 23.62 80.63 25.18 80.63 26.19 80.19 C 26.72 79.96 27.02 79.65 27.07 79.34 L 27.93 74.32 C 27.81 74.78 27.48 75.04 26.94 75.39 Z" fill="#3887e5" fill-rule="nonzero" group-id="1,4,21,43" node-id="1307" stroke="none" target-height="6.320404" target-width="7.0476" target-x="20.8788" target-y="74.3062"></path></g><path d="M 27.34 74.20 C 27.26 74.60 26.99 74.99 26.51 75.29 C 25.35 76.03 23.47 76.03 22.31 75.29 C 21.83 74.99 21.56 74.60 21.47 74.20 L 20.86 74.20 C 20.94 74.70 21.29 75.18 21.88 75.56 C 23.29 76.45 25.55 76.45 26.94 75.56 C 27.53 75.18 27.87 74.70 27.95 74.20 L 27.34 74.20 Z" fill="#a6c2ff" fill-rule="nonzero" group-id="1,4,21,44" node-id="1312" stroke="none" target-height="2.2485046" target-width="7.097101" target-x="20.8555" target-y="74.2046"></path></g></g><g node-id="1385"><g node-id="1402"><g node-id="1425"><path d="M 114.16 72.01 L 114.66 69.31 L 114.05 68.35 L 112.71 67.65 L 111.16 67.42 L 109.48 67.81 L 108.19 68.72 L 108.19 70.14 L 108.52 72.01 Z" fill="#a0533f" fill-rule="nonzero" group-id="1,5,22,45" node-id="1323" stroke="none" target-height="4.5942" target-width="6.4711" target-x="108.1904" target-y="67.4178"></path><g node-id="1524"><path d="M 113.83 67.94 C 115.23 68.83 115.24 70.27 113.85 71.16 C 112.46 72.05 110.20 72.05 108.80 71.16 C 107.40 70.27 107.39 68.83 108.78 67.94 C 110.17 67.05 112.43 67.05 113.83 67.94 Z M 109.22 70.89 C 110.38 71.63 112.27 71.63 113.42 70.89 C 114.58 70.15 114.57 68.95 113.41 68.21 C 112.24 67.47 110.36 67.47 109.21 68.21 C 108.05 68.95 108.06 70.15 109.22 70.89" fill="#a6c2ff" fill-rule="nonzero" group-id="1,5,22,45,144" node-id="1327" stroke="none" target-height="5.001396" target-width="7.8480988" target-x="107.3905" target-y="67.0462"></path></g></g></g><g node-id="1403"><g node-id="1426"><g node-id="1525"><g node-id="1559"><g node-id="1574"><path d="M 113.70 61.40 C 113.00 62.43 112.13 65.42 112.89 66.37 C 113.66 67.32 115.77 65.86 116.48 64.83 C 117.18 63.79 117.13 62.19 116.36 61.24 C 115.59 60.29 114.40 60.36 113.70 61.40 Z" fill="#6b9ef9" fill-rule="nonzero" group-id="1,5,23,46,145,179,194" node-id="1342" stroke="none" target-height="7.0241966" target-width="5.0509033" target-x="112.1278" target-y="60.2943"></path></g></g><g node-id="1560"><g node-id="1575"><path d="M 107.17 64.39 C 108.34 64.75 110.89 66.51 110.92 67.72 C 110.96 68.93 108.47 69.13 107.30 68.77 C 106.12 68.42 105.14 67.15 105.10 65.94 C 105.07 64.73 105.99 64.04 107.17 64.39 Z" fill="#6b9ef9" fill-rule="nonzero" group-id="1,5,23,46,145,180,195" node-id="1350" stroke="none" target-height="5.092201" target-width="5.8879013" target-x="105.0694" target-y="64.0371"></path></g></g><g node-id="1561"><g node-id="1576"><path d="M 111.81 60.10 C 112.21 61.69 111.88 64.66 110.71 65.19 C 109.53 65.71 107.95 63.60 107.56 62.02 C 107.16 60.43 107.80 58.72 108.97 58.19 C 110.15 57.66 111.42 58.52 111.81 60.10 Z" fill="#6b9ef9" fill-rule="nonzero" group-id="1,5,23,46,145,181,196" node-id="1358" stroke="none" target-height="8.049698" target-width="5.042099" target-x="107.1633" target-y="57.6642"></path></g><path d="M 113.64 66.59 C 113.77 68.25 112.96 73.09 111.73 73.25 C 110.50 73.41 109.30 68.84 109.18 67.18 C 109.06 65.52 109.96 64.04 111.19 63.88 C 112.42 63.71 113.52 64.93 113.64 66.59 Z" fill="#6b9ef9" fill-rule="nonzero" group-id="1,5,23,46,145,181,197" node-id="1363" stroke="none" target-height="9.698105" target-width="4.7100983" target-x="109.0562" target-y="63.7147"></path></g></g></g></g><g node-id="1404"><g node-id="1427"><path d="M 113.85 70.99 C 112.46 71.88 110.20 71.88 108.80 70.99 C 108.24 70.63 107.91 70.36 107.79 69.90 L 108.62 74.92 C 108.67 75.24 108.97 75.56 109.51 75.78 C 110.53 76.22 112.09 76.22 113.10 75.78 C 113.63 75.56 113.93 75.25 113.99 74.93 L 114.84 69.92 C 114.72 70.37 114.40 70.64 113.85 70.99 Z" fill="#3887e5" fill-rule="nonzero" group-id="1,5,24,47" node-id="1374" stroke="none" target-height="6.3203964" target-width="7.0476" target-x="107.7905" target-y="69.9008"></path></g><path d="M 114.25 69.80 C 114.17 70.20 113.90 70.58 113.42 70.89 C 112.27 71.63 110.38 71.63 109.22 70.89 C 108.74 70.58 108.47 70.20 108.38 69.80 L 107.77 69.80 C 107.86 70.30 108.20 70.78 108.80 71.16 C 110.20 72.05 112.46 72.05 113.85 71.16 C 114.44 70.78 114.78 70.30 114.86 69.80 L 114.25 69.80 Z" fill="#a6c2ff" fill-rule="nonzero" group-id="1,5,24,48" node-id="1379" stroke="none" target-height="2.248497" target-width="7.097107" target-x="107.7672" target-y="69.7993"></path></g></g></g></svg>